#N canvas 616 113 969 688 8;
#X declare -path cyclone;
#X declare -path else;
#N canvas 0 50 450 250 (subpatch) 0;
#X text 0 0 plugdatainfo <?xml version="1.0" encoding="UTF-8"?> <plugdatainfo><InfoObj ID="16.M....T....P.....B....." Updated="0" Segmented="1" Path="32......D..........J....Lv+++uB....C7+++2A...."/><InfoObj ID="16.C....D................" Updated="0" Segmented="1" Path="32......D..........Y....nG...PF....5A...DC...."/><InfoObj ID="16.P....HA.........A....." Updated="0" Segmented="1" Path="32......D..........qB....p++++p....f5+++iK...."/><InfoObj ID="16.O....HA.........A....." Updated="0" Segmented="1" Path="32......D..........lB...Tk+++uo....U4+++iK...."/><InfoObj ID="16.P....P..........B....." Updated="0" Segmented="1" Path="32......D..........L....ry+++OC....67+++SB...."/><InfoObj ID="16.K.....A...P.....A....." Updated="0" Segmented="1" Path="32......D..........H....j7+++OB....I++++GA...."/><InfoObj ID="16.O....P..........A....." Updated="0" Segmented="1" Path="32......D..........S.........vD.........PB...."/><InfoObj ID="16.K....7..........A....." Updated="0" Segmented="1" Path="32......D..........O.........vC.........zA...."/><InfoObj ID="16.d...............A....." Updated="0" Segmented="1" Path="32......D..........J....jH...fB....IB...HA...."/><InfoObj ID="16.g....j..........B....." Updated="0" Segmented="1" Path="32......D..........n....XE....J....VA...3D...."/></plugdatainfo>;
#X coords 0 1 100 -1 1 1 1;
#X restore 0 0 graph;
#X obj 2 3 declare -path cyclone;
#X obj 2 22 declare -path else;
#X obj 20 68 inlet;
#X obj 143 1 loadbang;
#X obj 283 60 args -;
#X obj 20 89 iterate;
#X text 306 233 NOTA \, VEL \, CHANNEL \, DURATION;
#X obj 283 81 route -sf -vel -dur, f 33;
#X obj 20 132 pack f f f f, f 47;
#X obj 143 22 t b b;
#X obj 165 52 t b b b;
#X msg 174 92 6000;
#X obj 20 256 outlet~;
#X obj 292 258 outlet~;
#X obj 283 102 list;
#X msg 20 153 next \$1 \$2 \$3 \$4;
#X msg 97 91 60;
#X obj 20 235 clone 64 Microtonal-Playback/Children_Microtonal-player;
#X obj 283 182 print;
#X msg 283 161 all sf2 \$1;
#X connect 3 0 6 0;
#X connect 4 0 10 0;
#X connect 5 0 8 0;
#X connect 6 0 9 0;
#X connect 8 0 15 0;
#X connect 8 1 9 1;
#X connect 8 2 9 2;
#X connect 9 0 16 0;
#X connect 10 0 5 0;
#X connect 10 1 11 0;
#X connect 11 0 17 0;
#X connect 11 1 12 0;
#X connect 12 0 9 2;
#X connect 15 0 20 0;
#X connect 16 0 18 0;
#X connect 17 0 9 1;
#X connect 18 0 13 0;
#X connect 18 1 14 0;
#X connect 20 0 18 0;
#X connect 20 0 19 0;
