#N canvas 916 297 957 633 8;
#X obj 7 252 else/out~;
#X msg 110 83 6386;
#X msg 139 83 6400;
#X msg 61 45 6000 6050;
#X msg 115 45 6000 6100;
#X msg 7 45 6000 6025;
#X obj 7 116 s note;
#X obj 7 214 r note;
#X obj 196 26 s note;
#X msg 196 5 3600 4800 5502 6000 6386 6702 6969 7200 7401 7550;
#X text 44 212 change by: harp or piano;
#X obj 6 4 py4pd -lib pd-ji;
#X obj 270 83 diamond;
#X obj 6 22 py4pd -lib py4pd;
#X obj 270 102 py.nth None 0;
#X obj 270 154 py.nth None 0;
#X obj 270 175 py2pd;
#X obj 270 241 rt2mc;
#X obj 270 262 py2pd;
#X obj 270 283 s note;
#X obj 369 55 vradio 10 1 0 8 empty empty empty 0 -8 0 8 #fcfcfc #000000 #000000 0;
#X msg 292 220 6000;
#X obj 7 234 ji-player -sf piano -dur 2000;
#X msg 224 54 doc;
#X obj 270 194 octavereduce;
#X msg 270 48 17;
#X msg 374 171 8;
#X connect 1 0 6 0;
#X connect 2 0 6 0;
#X connect 3 0 6 0;
#X connect 4 0 6 0;
#X connect 5 0 6 0;
#X connect 7 0 22 0;
#X connect 9 0 8 0;
#X connect 12 0 14 0;
#X connect 14 0 15 0;
#X connect 15 0 16 0;
#X connect 16 0 24 0;
#X connect 17 0 18 0;
#X connect 18 0 19 0;
#X connect 20 0 15 1;
#X connect 21 0 17 1;
#X connect 22 0 0 0;
#X connect 23 0 12 0;
#X connect 24 0 17 0;
#X connect 25 0 12 0;
#X connect 26 0 24 1;
