#N canvas 576 57 366 323 8;
#X declare -path else;
#X declare -path else;
#X obj 7 252 else/out~;
#X obj 7 214 r note;
#X obj 6 4 py4pd -lib py4pd-ji;
#X obj 6 22 py4pd -lib py4pd;
#X text 44 212 change by: harp or celesta;
#N canvas 1076 89 331 377 Harry 0;
#X obj 41 85 diamond;
#X obj 41 104 py.nth None 0;
#X obj 41 201 py.nth None 0;
#X obj 41 222 py2pd;
#X obj 41 291 rt2mc;
#X obj 41 312 py2pd;
#X obj 41 334 s note;
#X obj 103 67 vradio 13 1 0 2 empty empty empty 0 -8 0 8 #fcfcfc #000000 #000000 0;
#X msg 63 269 6000;
#X msg 16 51 doc;
#X msg 133 218 8;
#X text 119 66 Otonal Chords;
#X text 119 80 Utonal Chords;
#X text 91 269 Fundamental Midicent;
#X obj 103 124 vradio 12 1 0 6 empty empty empty 0 -8 0 8 #fcfcfc #000000 #000000 0;
#X text 117 122 1;
#X text 117 134 3;
#X text 117 146 5;
#X text 117 158 7;
#X text 117 170 9;
#X text 117 182 11;
#X msg 41 51 11;
#X obj 41 241 octavereduce None 8;
#X obj 41 12 bng 15 250 50 0 empty empty empty 0 -8 0 8 #fcfcfc #000000 #000000;
#X text 62 11 Play;
#X text 133 152 <= Change;
#X text 193 71 <= Change;
#X text 158 217 <= Change;
#X connect 0 0 1 0;
#X connect 1 0 2 0;
#X connect 2 0 3 0;
#X connect 3 0 22 0;
#X connect 4 0 5 0;
#X connect 5 0 6 0;
#X connect 7 0 1 1;
#X connect 8 0 4 1;
#X connect 9 0 0 0;
#X connect 10 0 22 1;
#X connect 14 0 2 1;
#X connect 21 0 0 0;
#X connect 22 0 4 0;
#X connect 23 0 21 0;
#X restore 5 80 pd Harry Partch Diamond;
#X text 127 76 Harry Partch Diamond Theory;
#N canvas 487 123 750 705 Utilities 0;
#X msg 222 9 9384 7384 2901;
#X obj 222 53 py.print;
#X obj 222 32 rangereduce None 6000 7200;
#X obj 14 30 rt2mc None 6000;
#X obj 14 87 py2pd;
#X obj 14 152 rangereduce None 6000 7200;
#X obj 14 173 py2pd;
#X obj 14 194 print;
#X text 46 85 To use this object \, you need to put py4pd -lib py4pd in your patch., f 31;
#X msg 14 9 65/64;
#X connect 0 0 2 0;
#X connect 2 0 1 0;
#X connect 3 0 4 0;
#X connect 4 0 5 0;
#X connect 5 0 6 0;
#X connect 6 0 7 0;
#X connect 9 0 3 0;
#X restore 5 59 pd Utilities;
#X text 127 55 Utilities for JI music.;
#N canvas 683 -2 596 504 Neimog 0;
#X obj 151 115 py.nth None 0;
#X obj 151 136 py.nth None 3;
#X obj 13 109 py.nth None 0;
#X obj 13 130 py.nth None 3;
#X msg 230 243 15;
#X obj 327 113 diamond-identity;
#X obj 327 279 py.print;
#X obj 327 134 py.nth None 0;
#X obj 327 155 py.nth None 0;
#X obj 327 174 rt2mc;
#X obj 327 227 py2pd;
#X obj 327 248 s note;
#X obj 327 195 rangereduce None 6000 7200;
#X msg 327 84 19 11 2023 1997;
#X obj 151 94 diamond-identity;
#X obj 13 89 diamond-identity;
#X msg 151 75 26 5 1996 3;
#X obj 151 161 rt2mc None 6400;
#X obj 197 309 py2pd;
#X obj 442 3 declare -path else;
#X obj 27 311 py2pd;
#X obj 13 182 rangereduce None 5500 6700;
#X obj 151 182 rangereduce None 5500 6700;
#X obj 13 155 rt2mc None 6000;
#X obj 180 217 py2pd;
#X obj 180 238 s note;
#X msg 13 70 380 240 278 361;
#X obj 27 408 keyboard 17 60 2 3 0 0 empty empty;
#N canvas 379 323 450 543 iterate 0;
#X obj 6 12 inlet;
#X obj 6 33 py.iterate;
#X obj 6 54 py2pd;
#X obj 6 75 * 0.01;
#X msg 6 154 on \$1;
#X obj 6 175 outlet;
#X obj 6 96 cyclone/round;
#X connect 0 0 1 0;
#X connect 1 0 2 0;
#X connect 2 0 3 0;
#X connect 3 0 6 0;
#X connect 4 0 5 0;
#X connect 6 0 4 0;
#X restore 27 349 pd iterate;
#X msg 56 389 flush;
#X obj 85 349 print partida;
#N canvas 379 323 450 543 iterate 0;
#X obj 6 12 inlet;
#X obj 6 33 py.iterate;
#X obj 6 54 py2pd;
#X obj 6 75 * 0.01;
#X msg 6 154 on \$1;
#X obj 6 175 outlet;
#X obj 6 96 cyclone/round;
#X connect 0 0 1 0;
#X connect 1 0 2 0;
#X connect 2 0 3 0;
#X connect 3 0 6 0;
#X connect 4 0 5 0;
#X connect 6 0 4 0;
#X restore 288 374 pd iterate;
#X msg 351 375 flush;
#X obj 326 338 print partida;
#X obj 287 411 keyboard 17 60 2 3 0 0 empty empty;
#X text 14 11 Things developed in my Master's degree.;
#X obj 151 37 loadbang;
#X obj 13 268 modulationnotes None None 15, f 44;
#X obj 222 38 bng 15 250 50 0 empty empty empty 0 -8 0 8 #fcfcfc #000000 #000000;
#X text 240 37 Play!;
#X connect 0 0 1 0;
#X connect 1 0 17 0;
#X connect 2 0 3 0;
#X connect 3 0 23 0;
#X connect 4 0 37 2;
#X connect 5 0 7 0;
#X connect 7 0 8 0;
#X connect 8 0 9 0;
#X connect 9 0 12 0;
#X connect 10 0 11 0;
#X connect 12 0 10 0;
#X connect 13 0 5 0;
#X connect 14 0 0 0;
#X connect 15 0 2 0;
#X connect 16 0 14 0;
#X connect 17 0 22 0;
#X connect 18 0 31 0;
#X connect 18 0 33 0;
#X connect 20 0 30 0;
#X connect 20 0 28 0;
#X connect 21 0 20 0;
#X connect 21 0 37 0;
#X connect 22 0 18 0;
#X connect 22 0 24 0;
#X connect 22 0 37 1;
#X connect 23 0 21 0;
#X connect 24 0 25 0;
#X connect 26 0 15 0;
#X connect 28 0 27 0;
#X connect 29 0 27 0;
#X connect 31 0 34 0;
#X connect 32 0 34 0;
#X connect 36 0 16 0;
#X connect 38 0 16 0;
#X restore 6 129 pd Neimog Techniques;
#X text 129 129 Some techniques that I use in my music.;
#X obj 7 234 ji-player -sf harp -dur 2000;
#X obj 108 4 declare -path else;
#X connect 1 0 11 0;
#X connect 11 0 0 0;
