#N canvas 868 169 735 747 8;
#X obj 4 95 py4pd;
#N canvas 0 32 1375 516 links 0;
#X obj 36 176 pdcontrol;
#X obj 119 83 r linux;
#X msg 36 58 browse https://www.python.org/downloads/release/python-31011;
#X obj 36 8 r nutelaOS;
#X obj 460 126 r howinstallpython;
#X msg 356 176 browse https://www.charlesneimog.com/py4pd/setup/#install-python;
#X msg 119 103 browse https://www.charlesneimog.com/py4pd/setup/#install-python;
#X connect 1 0 6 0;
#X connect 2 0 0 0;
#X connect 3 0 2 0;
#X connect 4 0 5 0;
#X connect 5 0 0 0;
#X connect 6 0 0 0;
#X restore 3 167 pd links;
#X text 133 352 by Charles K. Neimog;
#X obj 4 144 bng 20 250 50 0 howinstallpython howinstallpythonr empty 0 -10 0 12 #fcfcfc #000000 #000000;
#X text 89 2 Welcome to the pd-ji documentation!, f 36;
#X text 1 26 This Library aim to create an environment for the microtonal music composition \, mainly for Just Intonation composition. This library constructs the theory of Harry Partch \, Erv Wilson \, and Ben Johnston. It is a translation of om-ji from OpenMusic., f 71;
#X text 38 91 <= IMPORTANT: If this object not work \, Python or py4pd it is not installed in your system. Click on the Bang to go to the py4pd site and install it., f 63;
#X text 27 145 <= Go to py4pd.;
#X obj 4 209 py4pd -lib py4pd-ji;
#X text 104 208 <= Load the pd-ji library.;
#X obj 4 289 diamond;
#X obj 4 310 rt2mc None 6000;
#X msg 4 269 9;
#X obj 4 229 py4pd -lib py4pd;
#X text 92 229 <= Load the py4pd library.;
#X obj 4 331 py.nth None 1;
#X obj 4 352 py.print;
#X connect 10 0 11 0;
#X connect 11 0 15 0;
#X connect 12 0 10 0;
#X connect 15 0 16 0;
