#N canvas 429 45 1207 946 8;
#X obj 21 94 * 0.01;
#X obj 20 160 -;
#X obj 20 177 * 100;
#X obj 78 94 s velocity;
#X obj 136 117 s dur;
#X obj 315 265 r velocity;
#X obj 19 7 inlet;
#X obj 20 408 outlet~;
#X obj 126 408 outlet~;
#X obj 375 265 r channel;
#X obj 136 94 abs;
#X obj 254 287 pack f f f f, f 37;
#X obj 436 266 r dur;
#X obj 21 70 unpack f f f f, f 35;
#X obj 21 113 t f f f f;
#X obj 20 196 t f f;
#X obj 254 347 Children_note-off;
#N canvas 0 50 450 250 (subpatch) 0;
#X text 0 0 plugdatainfo <?xml version="1.0" encoding="UTF-8"?> <plugdatainfo><InfoObj ID="16.j....jA.........A....." Updated="0" Segmented="1" Path="32......D..........9.........fO.........nG...."/><InfoObj ID="16.e....3A.........A....." Updated="0" Segmented="1" Path="32......D..........g....L5+++eH....i9+++GF...."/><InfoObj ID="16.e....z..........A....." Updated="0" Segmented="1" Path="32......D..........e....Tv++++G....E7+++yC...."/><InfoObj ID="16.e....bA.........A....." Updated="0" Segmented="1" Path="32......D..........c....Hm+++eG....x4+++mC...."/><InfoObj ID="16.e....fA..............." Updated="0" Segmented="1" Path="32......D..........H....7j+++OB....O4+++6....."/><InfoObj ID="16.Q....rA.........A....." Updated="0" Segmented="1" Path="32......D..........y....X4++++L....V9+++eH...."/><InfoObj ID="16.R....LA.........B....." Updated="0" Segmented="1" Path="32......D..........R....7N...fD....uC...XC...."/><InfoObj ID="16.U....XA...P..........." Updated="0" Segmented="1" Path="32......D..........W....X9++++E....l++++yB...."/><InfoObj ID="16.W....LA.........A....." Updated="0" Segmented="1" Path="32......D..........W.........vE.........vB...."/><InfoObj ID="16.A....7..........B....." Updated="0" Segmented="1" Path="32......D..........i....D+++++H....w++++WD...."/><InfoObj ID="16.A....jA...P.....B....." Updated="0" Segmented="1" Path="32......D..........M....v9+++eC....r++++iA...."/><InfoObj ID="16.Z....7..........D....." Updated="0" Segmented="1" Path="32......D..........O....bS...vC....2D...XC...."/><InfoObj ID="16.a....nA.........B....." Updated="0" Segmented="1" Path="32......D..........JA........fR.........LI...."/><InfoObj ID="16.S....nA.........B....." Updated="0" Segmented="1" Path="32......D..........N....fA...fC....X....rA...."/><InfoObj ID="16.W....r..........D....." Updated="0" Segmented="1" Path="32......D..........R....rF...fD....qA...LB...."/><InfoObj ID="16.M....r..........D....." Updated="0" Segmented="1" Path="32......D..........R.........fD.........LB...."/><InfoObj ID="16.Q....DB.........B....." Updated="0" Segmented="1" Path="32......D..........R....7N...fD....uC...XC...."/><InfoObj ID="16.Q....DB.........A....." Updated="0" Segmented="1" Path="32......D..........R....vO...fD....7C...XC...."/><InfoObj ID="16.U....DB.........B....." Updated="0" Segmented="1" Path="32......D..........W....P+++++E....z++++yB...."/></plugdatainfo>;
#X coords 0 1 100 -1 1 1 1;
#X restore 0 0 graph;
#X obj 49 138 round 1;
#X obj 173 180 round 1;
#X obj 20 216 round 1;
#X obj 20 235 round 1 @nearest 0;
#X obj 20 253 t b f;
#X msg 20 292 transp \$1, f 11;
#X msg 226 180 open \$1;
#X obj 19 32 route sf2;
#X obj 87 269 float;
#X msg 214 346 \$1 \$2;
#X obj 226 109 symbol;
#X obj 20 383 sfont~ harp.sf2, f 43;
#X connect 0 0 14 0;
#X connect 1 0 2 0;
#X connect 2 0 15 0;
#X connect 5 0 11 1;
#X connect 6 0 25 0;
#X connect 9 0 11 2;
#X connect 10 0 4 0;
#X connect 11 0 16 0;
#X connect 11 0 27 0;
#X connect 12 0 11 3;
#X connect 13 0 0 0;
#X connect 13 1 3 0;
#X connect 13 2 10 0;
#X connect 14 1 1 0;
#X connect 14 2 18 0;
#X connect 14 3 19 0;
#X connect 15 0 20 0;
#X connect 16 0 29 0;
#X connect 18 0 1 1;
#X connect 19 0 26 1;
#X connect 20 0 21 0;
#X connect 21 0 22 0;
#X connect 22 0 26 0;
#X connect 22 1 23 0;
#X connect 23 0 29 0;
#X connect 24 0 29 0;
#X connect 25 0 28 0;
#X connect 25 1 13 0;
#X connect 26 0 11 0;
#X connect 27 0 29 0;
#X connect 28 0 24 0;
#X connect 29 0 7 0;
#X connect 29 1 8 0;
